Patient4_TMGait_0pt6_01_left_26_EMG.mot
version=1
nRows=26
nColumns=33
inDegrees=no
endheader
time	1LAddLong	2LGlutMax	3LGlutMed	4LIliopsoas	5LSemiMemb	6LBicFemLong	7LRecFem	8LVastMed	9LVastLat	10LGasMed	11LTibAnt	12lTibPost	13LPeroneusLong	14LSol	15LExtDigLong	16LFlexDigLong	17RAddLong	18RGlutMax	19RGlutMed	20RIliopsoas	21RSemiMemb	22RBicFemLong	23RRecFem	24RVastMed	25RVastLat	26RGasMed	27RTibAnt	28RTibPost	29RPeroneusLong	30RSol	31RExtDigLong	32RFlexDigLong
32.49	0.022583	0.001678	0.15503	0.003357	0.019836	0.021667	-0.081177	0.002899	-0.026398	-0.027466	-0.004883	0.002899	0.033875	-0.13382	-0.007172	-0.11078	0.023193	0.1004	0.017395	-0.067291	-0.021362	-0.32059	-0.23956	-0.2005	-0.12436	-0.005035	0.001526	-0.002899	0.44784	-0.009918	-0.00351	-0.008545
32.491	0.011749	0.004425	0.14999	0.006104	0.004578	0.064392	-0.05661	0.000305	-0.03418	0.010529	-0.010376	-0.00946	0.002747	-0.47562	0.010834	0.30319	0.028076	0.16983	-0.075684	-0.058289	0.052795	-0.354	0.024261	-0.23804	-0.21149	-0.011444	-0.26093	-0.002899	0.12451	-0.023804	-0.001831	-0.002136
32.492	0.018921	0.040283	0.15717	0.000458	0.014648	0.010529	-0.047302	0.005646	-0.032349	-0.032959	-0.002899	0.015564	-0.050354	-0.36194	-0.007477	0.071106	0.006561	0.21835	-0.02594	-0.14969	0.40405	-0.298	0.041656	-0.066071	-0.28534	-0.010376	-0.43335	-0.001373	0.14252	-0.009003	-0.001068	-0.00824
32.493	0.013733	0.015106	0.17014	-0.001526	0.008545	0.068665	-0.061951	0.008698	-0.030212	-0.63995	0.008087	-0.029602	-0.00946	-0.051575	-0.026093	-0.24017	-0.022278	0.10986	-0.021973	-0.11322	0.22888	-0.22583	0.10239	-0.045471	-0.24902	-0.006256	-0.28519	0.000305	-0.2002	-0.041199	0.001526	-0.004272
32.494	0.014038	0.009003	0.16129	0.003662	-0.005493	0.072632	-0.051117	0.011292	-0.036469	-0.51941	-0.00473	-0.05127	-0.008087	0.2919	-0.057983	-0.39719	0.006104	0.023193	-0.16586	0.011749	0.10025	-0.16083	0.097046	0.011597	-0.27847	-0.001373	-0.089264	0.001526	-0.23895	-0.060425	0.010986	-0.010529
32.495	0.009155	0.005188	0.17654	0.002289	-0.020905	0.081482	-0.049133	0.010529	-0.038452	-0.19455	0.001221	0.082855	-0.071564	0.24277	-0.054169	-0.3894	0.007782	-0.10407	-0.22064	0.097809	0.055847	-0.012207	0.015869	0.063019	-0.26398	-0.006714	0.11887	-0.000916	-0.36133	-0.040131	0.002594	-0.007019
32.496	0.015411	-0.011444	0.17334	0.021667	-0.066376	0.070343	-0.057068	0.00946	-0.026398	0.19012	-0.002747	0.008545	-0.085297	0.1918	-0.039215	0.45151	0.025482	-0.28778	-0.053253	0.14297	0.027313	0.087128	-0.11307	0.21072	-0.34286	-0.011597	0.16785	-0.000305	-0.35629	-0.02243	0.001984	-0.014038
32.497	0.018616	-0.009308	0.18234	0.026398	-0.10773	0.020752	-0.057678	0.005341	-0.028687	0.1004	-0.01236	-0.065765	-0.075684	0.33539	-0.010834	0.45319	0.057831	-0.35812	0.002899	0.1088	0.03067	0.14252	-0.16159	0.41031	-0.47546	-0.015411	0.076599	0.003204	0.096588	0.004272	0.001373	-0.013428
32.498	0.021057	-0.010529	0.18234	0.022888	-0.096588	0.002594	-0.068512	0.005646	-0.016785	0.050049	-0.015564	-0.043182	0.080414	0.36591	0.006409	0.13763	0.076752	-0.289	-0.03006	0.13565	-0.009155	0.15259	-0.14771	0.25101	-0.4715	-0.010376	0.060425	0.004883	0.23254	-0.033569	0.010986	-0.010986
32.499	0.015411	-0.004883	0.19119	0.010529	0.013733	-0.00885	-0.050201	0.00473	-0.014191	0.018768	-0.019836	-0.016785	0.083008	0.15305	0.00824	-0.049591	0.076752	-0.18021	-0.21225	0.11948	-0.029602	0.19043	-0.026245	0.10193	-0.025635	-0.00061	0.089569	0.007477	0.60074	-0.080719	0.002136	-0.011444
32.5	0.011902	0.023193	0.1857	0.00061	0.046082	-0.054474	-0.057373	0.003662	-0.019226	0.089264	-0.024719	-0.00885	0.12466	-0.32791	0.011292	-0.028839	0.081787	-0.068665	-0.27481	0.040131	0.045319	0.14908	-0.13702	-0.33218	0.5867	-0.001221	0.18097	0.004425	0.42496	-0.023346	-0.001678	-0.012207
32.501	0.022736	0.072937	0.18555	-0.006866	0.022888	-0.058441	-0.041656	0.003052	-0.001678	0.12146	0.020142	-0.019989	0.097656	-0.74081	0.021057	-0.023499	0.077515	0.011749	-0.31403	-0.045624	0.085907	0.063934	-0.15137	-0.73944	0.6192	-0.007324	0.21454	0.000305	0.052185	-0.001526	-0.000458	-0.005493
32.502	0.014496	0.059662	0.18341	-0.000458	0.018921	-0.088806	-0.02594	0.00946	-0.024261	0.078278	-0.02655	-0.021973	0.070801	-0.24033	0.023193	-0.066223	0.074005	0.16281	-0.29114	-0.093689	0.26794	-0.028381	-0.072479	-0.91721	0.19852	-0.005951	0.37537	-0.000458	0.1738	-0.006104	0.003357	-0.00412
32.503	0.009003	0.039825	0.19516	0.009155	0.006561	-0.059204	-0.000458	0.009613	-0.021057	0.034027	0.006256	-0.021515	0.075989	-0.19928	0.012665	-0.071411	0.022125	0.2388	-0.035248	-0.088196	0.2655	-0.048676	-0.10483	-0.86731	-0.096741	-0.009003	0.46295	-0.000916	0.24002	-0.094604	-0.000763	-0.009613
32.504	0.017242	0.038452	0.20035	0.005341	-0.002441	-0.055389	0.010376	0.008698	-0.016174	0.050201	0.001984	0.056458	0.051422	-0.59326	-0.01709	-0.11215	-0.049438	0.2475	0.080872	-0.032349	-0.19196	-0.07782	-0.099945	-0.71198	-0.22675	-0.012665	0.28046	-0.000916	-0.21606	-0.09964	-0.002136	-0.009613
32.505	0.013123	0.049286	0.19165	-0.001526	-0.005646	-0.075226	-0.008545	0	-0.012054	0.10498	0.000916	0.034485	0.038757	-0.58044	-0.008087	-0.73685	-0.12894	0.242	-0.22064	0.056152	-0.24017	-0.14328	-0.16769	-0.37796	-0.26001	-0.006561	-0.007782	-0.005035	-0.72052	-0.10315	0	-0.005341
32.506	0.014648	0.053711	0.20752	-0.001068	0	-0.12116	-0.011292	-0.002136	-0.004272	0.13901	-0.003052	0.037079	0.034943	-0.47119	0.00061	0.68726	-0.094147	0.081329	-0.26459	0.051117	0.019226	-0.33951	-0.034485	-0.18601	-0.2446	-0.011292	-0.35263	-0.003357	-0.63202	-0.14893	-0.003662	0.000763
32.507	0.014038	0.067902	0.20721	0.025024	0.004578	-0.087128	-0.016022	0.001831	0.001373	0.071411	-0.005798	-0.009766	0.044556	-0.23865	0.009766	0.25574	-0.02533	-0.061035	-0.27054	0.1059	-0.023499	-0.48309	0.041199	0.000916	0.16968	-0.001984	-0.3183	-0.002441	-0.068817	-0.13473	0	-0.005951
32.508	0.011292	0.070953	0.20401	0.014191	-0.012512	-0.062103	0.012207	0.00473	-0.010376	0.06134	-0.00885	0.097504	0.052338	0.27634	0.007782	-0.26184	0.019836	-0.26733	-0.20844	0.088348	-0.057831	-0.44174	0.15076	0.003815	0.55832	-0.005188	-0.35492	-0.003204	0.25497	-0.057831	0.005951	-0.005188
32.509	0.009155	0.05188	0.21057	0.027008	0.004578	-0.078888	0.008392	0.006866	-0.014343	0.044098	-0.00351	-0.014496	0.05127	0.77179	0.025635	-0.065002	0.063934	-0.32272	-0.079803	-0.054474	-0.020599	-0.26703	0.24597	-0.061646	0.56381	-0.012207	-0.061188	-0.009766	0.046692	-0.02655	0.000153	-0.010376
32.51	0.020599	0.14145	0.21668	-0.015564	0.009613	0.017395	0.017853	0.007935	-0.014038	-0.20447	-0.000916	0.010529	0.055695	0.52155	0.019989	0.45227	0.094757	-0.40832	-0.001373	-0.057526	0.021515	-0.13153	0.24078	-0.15976	0.25406	-0.012207	0.25055	-0.003204	-0.048523	-0.024414	-0.003815	-0.011749
32.511	0.014191	0.10452	0.20828	-0.005493	-0.010986	0.14267	-0.002899	-0.002899	0.000305	-0.31128	0.002747	-0.028839	0.06546	-0.072479	0.005035	-0.00824	0.096283	-0.4538	0.046387	-0.019989	0.060883	-0.065155	0.13199	-0.11093	-0.023956	-0.001831	0.38818	0.000153	0.056915	-0.054474	0	-0.001984
32.512	0.022736	0.085754	0.22522	-0.011902	0.006256	-0.017853	0.000153	-0.001831	0.001526	-0.22522	-0.005798	-0.0177	0.036316	-0.21332	0.000305	-0.009155	0.082397	-0.30167	-0.13397	0.018616	0.046082	0.18402	-0.005798	0.088348	-0.061798	0.000153	0.23697	0.001373	0.30029	-0.10468	-0.000305	-0.007324
32.513	0.018921	0.11688	0.20645	0.009308	0.01236	-0.1297	0.015564	-0.003204	0.002899	0.06424	0.003967	-0.020905	0.012054	-0.59738	0.019379	0.014801	0.10117	-0.27863	-0.082703	0.050964	-0.24658	0.30319	0.00946	0.20065	-0.045166	0.000458	-0.20416	-0.006256	0.39261	-0.065155	0.002441	-0.013733
32.514	0.014038	0.092163	0.21332	0.018311	0.003815	-0.067749	0.019073	-0.001984	-0.005493	0.059204	-0.005951	-0.013123	0.001984	-0.31021	0.031586	-0.011749	0.11734	-0.20462	0.058289	0.024109	-0.5484	0.24323	0.096283	0.022278	-0.18402	-0.007935	-0.57861	-0.003204	0.73776	0.041656	0.001984	-0.003967
32.515	0.009003	0.095215	0.20615	0.010529	0.026398	-0.029602	0.00351	-0.00061	-0.011444	-0.054016	-0.007172	-0.009613	-0.005951	0.25604	0.031281	-0.032349	0.12482	-0.081482	-0.01297	0.027771	-0.72983	0.25787	0.16388	-0.19058	-0.50903	-0.003204	-0.63034	-0.000305	1.0371	0.085144	0.002747	-0.002441
